<?xml version="1.0" encoding="utf-8"?>
<!-- Generator: Adobe Illustrator 23.0.0, SVG Export Plug-In . SVG Version: 6.00 Build 0)  -->
<svg version="1.1" id="Text-Level" xmlns="http://www.w3.org/2000/svg" xmlns:xlink="http://www.w3.org/1999/xlink" x="0px" y="0px"
	 viewBox="0 0 850 250" style="enable-background:new 0 0 850 250;" xml:space="preserve">
<style type="text/css">
	.st0{fill:#F7A418;}
	.st1{fill:#4BAD33;}
</style>
<g id="Text">
	<g>
		<path class="st0" d="M209.49,138.32c0-7.02,1.17-13.62,3.53-19.79c2.35-6.17,5.44-11.37,9.26-15.58
			c3.82-4.21,8.21-7.53,13.16-9.95c4.95-2.42,10.04-3.63,15.26-3.63c5.23,0,9.4,1.39,12.53,4.16c3.12,2.77,4.68,6.74,4.68,11.9
			s-1.98,9.7-5.95,13.63c-3.97,3.93-9.07,6.49-15.32,7.68c-1.12,0.14-1.86,0.21-2.21,0.21c-2.6,0-3.9-1.02-3.9-3.05
			c0-0.77,0.37-1.47,1.11-2.11c0.74-0.63,2.4-1.3,5-2c4-1.12,7.21-2.88,9.63-5.26c2.42-2.39,3.63-5.14,3.63-8.26
			c0-3.12-0.9-5.39-2.68-6.79c-1.79-1.4-4.26-2.11-7.42-2.11c-7.65,0-14.62,3.95-20.9,11.84c-6.28,7.9-9.42,17.18-9.42,27.84
			c0,8,1.61,14.16,4.84,18.48c3.23,4.32,7.9,6.47,14,6.47c6.11,0,11.63-1.6,16.58-4.79c4.95-3.19,9.04-7.32,12.26-12.37
			c0.28-0.49,0.82-0.74,1.63-0.74c0.81,0,1.63,0.32,2.47,0.95c0.84,0.63,1.26,1.19,1.26,1.68c0,0.49-0.07,0.88-0.21,1.16
			c-3.09,6.67-7.97,12.02-14.63,16.05c-6.67,4.04-13.81,6.05-21.42,6.05c-7.62,0-13.98-2.67-19.11-8
			C212.05,156.67,209.49,148.77,209.49,138.32z"/>
		<path class="st0" d="M279.29,160.53c-3.51,0-6.39-1.26-8.63-3.79c-2.25-2.53-3.37-5.68-3.37-9.47c0-5.75,1.88-10.86,5.63-15.32
			c3.75-4.46,8.16-6.69,13.21-6.69c2.95,0,5.42,1.05,7.42,3.16c2,2.11,3,4.77,3,8c0,0.7-0.14,1.83-0.42,3.37
			c4.56-0.84,9.09-3.79,13.58-8.84c0.28-0.28,0.65-0.42,1.11-0.42c0.46,0,0.93,0.33,1.42,1c0.49,0.67,0.74,1.33,0.74,2
			c0,0.67-0.14,1.14-0.42,1.42c-4.7,5.83-10.53,9.68-17.48,11.58C292.76,155.86,287.5,160.53,279.29,160.53z M280.86,153.79
			c1.82,0,3.53-1.02,5.11-3.05c1.58-2.04,2.47-4.07,2.68-6.11c-2.6-1.12-3.9-2.56-3.9-4.32c0-1.75,0.91-3.51,2.74-5.26
			c-0.07-0.91-0.3-1.58-0.68-2c-0.39-0.42-0.93-0.63-1.63-0.63c-2.67,0-4.95,1.56-6.84,4.68c-1.9,3.12-2.84,6.37-2.84,9.74
			C275.5,151.47,277.29,153.79,280.86,153.79z"/>
		<path class="st0" d="M331.5,152.95c2.67-0.56,5.9-2.63,9.69-6.21c0.28-0.28,0.68-0.42,1.21-0.42s1.09,0.47,1.68,1.42
			c0.6,0.95,0.9,1.68,0.9,2.21s-0.07,0.93-0.21,1.21c-2.25,2.88-5.05,5.09-8.42,6.63c-3.37,1.54-6.18,2.32-8.42,2.32
			c-4.07,0-6.11-2.21-6.11-6.63c0-2.32,0.7-5.65,2.1-10c1.4-4.35,2.11-6.69,2.11-7s-0.07-0.47-0.21-0.47h-0.1
			c-1.19,0.49-3.7,3.28-7.53,8.37c-3.83,5.09-6.16,8.68-7,10.79s-1.56,3.46-2.16,4.05c-0.6,0.6-1.56,0.89-2.9,0.89
			c-2.6-0.07-3.9-2.74-3.9-8c0.14-7.44,1.68-15.12,4.63-23.05c0.91-2.53,2.46-3.79,4.63-3.79c0.84,0,1.54,0.28,2.11,0.84
			c0.56,0.56,0.84,1.14,0.84,1.74c0,0.6-0.04,1-0.11,1.21c-1.62,4.63-2.91,9.83-3.9,15.58c3.65-6.32,7.23-11.14,10.74-14.47
			c3.51-3.33,6.63-5,9.37-5c1.4,0,2.63,0.44,3.68,1.32c1.05,0.88,1.58,1.81,1.58,2.79c0,1.54-0.9,5.04-2.68,10.47
			c-1.79,5.44-2.75,8.65-2.9,9.63c-0.14,0.98-0.21,1.84-0.21,2.58c0,0.74,0.23,1.09,0.68,1.05
			C331.17,152.97,331.43,152.95,331.5,152.95z"/>
		<path class="st0" d="M342.66,142.95v-1.16c-0.91,0.63-1.7,0.95-2.37,0.95c-0.67,0-1.23-0.3-1.68-0.89
			c-0.46-0.6-0.68-1.33-0.68-2.21c0-0.88,0.42-1.54,1.26-2c0.84-0.46,2.17-1.11,4-1.95c1.19-9.33,3.65-18.21,7.37-26.63
			c1.9-4.28,4.25-7.81,7.05-10.58c2.81-2.77,5.54-4.16,8.21-4.16c2.67,0,4.58,0.67,5.74,2c1.16,1.33,1.74,2.95,1.74,4.84v0.74
			c-0.42,5.19-2.37,10.35-5.84,15.48c-3.47,5.12-7.56,9.62-12.26,13.48c5.82-1.96,9.54-2.95,11.16-2.95c0.56,0,1.1,0.3,1.63,0.9
			c0.53,0.6,0.79,1.39,0.79,2.37c0,0.98-0.6,1.58-1.79,1.79c-3.58,0.56-9.05,2.35-16.42,5.37c-0.14,2.25-0.21,4-0.21,5.26
			c0,6.67,1.44,10,4.32,10c3.37,0,7.26-2.46,11.69-7.37c0.49-0.49,1.1-0.74,1.84-0.74c0.74,0,1.44,0.3,2.1,0.89
			c0.67,0.6,1,1.33,1,2.21c0,0.88-0.42,1.77-1.26,2.68c-5.4,6.04-10.84,9.05-16.32,9.05c-4.07,0-6.93-1.53-8.58-4.58
			C343.48,152.68,342.66,148.42,342.66,142.95z M365.19,103.05c-1.97,0-3.93,1.47-5.9,4.42c-3.65,5.41-6.14,12.28-7.47,20.63
			c0.14-0.14,1-1.09,2.58-2.84c1.58-1.75,2.56-2.84,2.95-3.26c0.38-0.42,1.23-1.42,2.53-3c1.3-1.58,2.16-2.79,2.58-3.63
			c0.42-0.84,1-1.96,1.74-3.37c0.74-1.4,1.23-2.74,1.47-4c0.25-1.26,0.37-2.39,0.37-3.37C366.03,103.65,365.75,103.12,365.19,103.05
			z"/>
		<path class="st0" d="M367.19,146.42c0-5.19,1.7-10.02,5.11-14.47c3.4-4.46,7.53-6.69,12.37-6.69c2.88,0,5.26,0.81,7.16,2.42
			c1.9,1.62,2.84,3.79,2.84,6.53c0,3.86-1.58,6.98-4.74,9.37c-3.16,2.39-7.93,4.25-14.32,5.58c0.98,3.02,3.51,4.53,7.58,4.53
			c5.61,0,10.91-2.38,15.9-7.16c0.28-0.28,0.72-0.42,1.32-0.42c0.6,0,1.16,0.25,1.68,0.74c0.53,0.49,0.79,1.09,0.79,1.79
			c0,0.7-0.25,1.4-0.74,2.11c-1.75,2.46-4.53,4.72-8.32,6.79c-3.79,2.07-7.74,3.11-11.84,3.11c-4.11,0-7.6-1.21-10.47-3.63
			C368.62,154.58,367.19,151.05,367.19,146.42z M384.82,132.1c-2.28,0-4.47,1.32-6.58,3.95s-3.16,5.46-3.16,8.47
			c8.77-3.02,13.16-6.17,13.16-9.47C388.24,133.09,387.1,132.1,384.82,132.1z"/>
		<path class="st0" d="M417.19,154.53c0-3.51,1.3-10.25,3.89-20.21c-4.14,5.97-7.97,12.49-11.47,19.58
			c-0.91,1.89-1.77,3.32-2.58,4.26c-0.81,0.95-1.42,1.49-1.84,1.63c-0.42,0.14-1.02,0.21-1.79,0.21c-2.74,0-4.11-2.21-4.11-6.63
			c0-8.14,1.37-16.32,4.11-24.53c0.77-2.39,2.11-3.58,4-3.58c0.7,0,1.33,0.21,1.9,0.63c0.56,0.42,0.84,0.91,0.84,1.47
			c0,0.56-0.04,0.95-0.11,1.16c-1.75,5.68-3.05,12.18-3.9,19.48c3.09-7.72,6.18-13.4,9.26-17.05s5.75-5.47,8-5.47
			c0.98,0,1.86,0.28,2.63,0.84c0.77,0.56,1.16,1.33,1.16,2.32c0,3.23-1.12,9.26-3.37,18.11c5.4-14.25,11.05-21.37,16.95-21.37
			c3.16,0,4.74,1.58,4.74,4.74c0,2.04-0.86,5.49-2.58,10.37c-1.72,4.88-2.58,8.62-2.58,11.21c0,1.83,0.84,2.74,2.53,2.74
			c0.49,0,0.84-0.04,1.05-0.11c1.82-0.42,5.05-2.88,9.69-7.37c0.28-0.28,0.7-0.42,1.26-0.42c0.56,0,1.21,0.33,1.95,1
			c0.74,0.67,1.11,1.16,1.11,1.47s-0.07,0.62-0.21,0.89c-2.25,3.09-5,5.58-8.26,7.47s-6.09,2.84-8.47,2.84h-0.21
			c-2.25,0-4-0.68-5.26-2.05c-1.26-1.37-1.89-3.11-1.89-5.21V152c0.35-3.23,1.93-9.3,4.74-18.21c-3.09,2.6-7.47,10.18-13.16,22.74
			c-1.12,2.32-2.42,3.47-3.89,3.47C418.56,160,417.19,158.18,417.19,154.53z"/>
	</g>
	<g>
		<path class="st1" d="M471.76,173.16c-3.65,0-6.7-1.65-9.16-4.95c-4.42-6.04-6.63-16.18-6.63-30.42c0-20.21,5.16-35.2,15.48-44.95
			c5.26-4.98,11.54-7.61,18.84-7.9h2c9.05,0,16.25,2.12,21.58,6.37c5.33,4.25,8,9.65,8,16.21c0,6.56-2.84,12.09-8.53,16.58
			c-5.69,4.49-13.44,7.3-23.27,8.42c-0.35,0.14-0.67,1.3-0.95,3.47c-0.14,1.19-0.28,2.39-0.42,3.58c-0.14,1.19-0.32,2.79-0.53,4.79
			c-0.21,2-0.51,4.62-0.89,7.84c-0.39,3.23-1.05,6.44-2,9.63c-0.95,3.19-2.56,5.88-4.84,8.05
			C478.16,172.07,475.27,173.16,471.76,173.16z M473.02,165.58c2.53,0,4.25-2.14,5.16-6.42c0.49-2.32,0.86-4.58,1.11-6.79
			c0.25-2.21,0.54-5.3,0.89-9.26c0.35-3.96,0.7-7.32,1.05-10.05c-0.35-0.14-1.18-0.46-2.47-0.95c-1.3-0.49-2.18-0.86-2.63-1.1
			c-0.46-0.25-1.07-0.63-1.84-1.16c-0.77-0.53-1.3-1.14-1.58-1.84c-0.28-0.7-0.42-1.75-0.42-3.16c0-1.4,0.32-2.11,0.95-2.11
			c0.84,0,2.38,0.54,4.63,1.63c2.24,1.09,3.68,1.63,4.31,1.63c0.42-1.47,0.98-3.82,1.69-7.05c0.7-3.23,1.54-6.07,2.53-8.53
			c1.19-2.81,3.12-4.21,5.79-4.21c2.6,0,3.96,0.74,4.11,2.21c-0.28,0.98-1.37,3.68-3.26,8.11c-1.89,4.42-2.81,7.69-2.74,9.79
			c6.88-0.7,12.35-2.68,16.42-5.95c4.07-3.26,6.11-7.26,6.11-12s-1.76-8.42-5.26-11.05c-3.51-2.63-8.32-3.95-14.42-3.95
			s-11.09,1.58-14.95,4.74c-3.44,2.88-6.11,6.56-8,11.05c-3.65,8.91-5.47,18.46-5.47,28.63
			C464.71,156.32,467.48,165.58,473.02,165.58z"/>
		<path class="st1" d="M525.55,160.32c-3.51,0-6.21-1.42-8.11-4.26c-1.89-2.84-2.84-6.72-2.84-11.63c0-1.47,0.04-2.6,0.11-3.37
			c0.91-10.17,3.58-20.77,8-31.79c2.18-5.26,4.88-9.63,8.11-13.11c3.23-3.47,6.63-5.21,10.21-5.21c2.11,0,3.79,0.68,5.05,2.05
			c1.26,1.37,1.89,3.07,1.89,5.11v0.84c-0.7,7.09-3.58,14.49-8.63,22.21c-5.05,7.72-10.63,13.97-16.74,18.74
			c-0.28,2.25-0.42,3.97-0.42,5.16c0,5.68,1.68,8.53,5.05,8.53c3.51,0,7.4-2.46,11.69-7.37c0.49-0.49,1.11-0.74,1.84-0.74
			s1.44,0.3,2.11,0.89c0.67,0.6,1,1.33,1,2.21c0,0.88-0.42,1.77-1.26,2.68C537.27,157.3,531.59,160.32,525.55,160.32z M538.4,99.57
			c-2.95,0-5.91,3.76-8.89,11.26c-2.98,7.51-5,14.63-6.05,21.37c4.14-4.63,7.95-9.9,11.42-15.79c3.47-5.9,5.24-10.81,5.32-14.74
			C540.19,100.28,539.59,99.57,538.4,99.57z"/>
		<path class="st1" d="M537.66,149.05c0-6.32,2.26-11.95,6.79-16.9c4.53-4.95,9.35-7.42,14.47-7.42c2.88,0,4.32,0.74,4.32,2.21v0.63
			h2.42c1.96,0,2.95,0.91,2.95,2.74v0.63l-2.95,18.11c-0.07,0.28-0.11,0.67-0.11,1.16c0,1.68,0.6,2.53,1.79,2.53
			c2.67,0,5.82-2.35,9.47-7.05c0.49-0.63,0.98-0.95,1.47-0.95c0.7,0,1.3,0.54,1.79,1.63c0.49,1.09,0.74,2.04,0.74,2.84
			c0,0.81-0.07,1.42-0.21,1.84c-1.62,2.25-3.72,4.3-6.32,6.16c-2.6,1.86-5.07,2.79-7.42,2.79c-2.35,0-4.18-0.61-5.47-1.84
			c-1.3-1.23-2.09-2.9-2.37-5c0,0.07,0,0.14,0,0.21c-1.19,2.25-2.77,4-4.74,5.26c-2.04,1.26-4.46,1.89-7.26,1.89
			c-2.81,0-5.07-1.07-6.79-3.21C538.52,155.18,537.66,152.42,537.66,149.05z M549.55,153.16c1.89,0,3.7-1.05,5.42-3.16
			c1.72-2.11,2.89-4.42,3.53-6.95l2.84-11.79c-4.07,0-7.72,1.93-10.95,5.79c-3.23,3.86-4.84,7.51-4.84,10.95
			C545.55,151.44,546.89,153.16,549.55,153.16z"/>
		<path class="st1" d="M604.82,152.95c2.67-0.56,5.89-2.63,9.68-6.21c0.28-0.28,0.69-0.42,1.21-0.42c0.53,0,1.09,0.47,1.69,1.42
			c0.59,0.95,0.89,1.68,0.89,2.21s-0.07,0.93-0.21,1.21c-2.25,2.88-5.05,5.09-8.42,6.63c-3.37,1.54-6.18,2.32-8.42,2.32
			c-4.07,0-6.11-2.21-6.11-6.63c0-2.32,0.7-5.65,2.11-10c1.4-4.35,2.11-6.69,2.11-7s-0.07-0.47-0.21-0.47h-0.11
			c-1.19,0.49-3.7,3.28-7.53,8.37c-3.83,5.09-6.16,8.68-7,10.79s-1.56,3.46-2.16,4.05c-0.6,0.6-1.56,0.89-2.89,0.89
			c-2.6-0.07-3.89-2.74-3.89-8c0.14-7.44,1.68-15.12,4.63-23.05c0.91-2.53,2.46-3.79,4.63-3.79c0.84,0,1.54,0.28,2.11,0.84
			c0.56,0.56,0.84,1.14,0.84,1.74c0,0.6-0.04,1-0.11,1.21c-1.62,4.63-2.91,9.83-3.89,15.58c3.65-6.32,7.23-11.14,10.74-14.47
			c3.51-3.33,6.63-5,9.37-5c1.4,0,2.63,0.44,3.68,1.32c1.05,0.88,1.58,1.81,1.58,2.79c0,1.54-0.89,5.04-2.68,10.47
			c-1.79,5.44-2.76,8.65-2.89,9.63c-0.14,0.98-0.21,1.84-0.21,2.58c0,0.74,0.23,1.09,0.68,1.05
			C604.49,152.97,604.75,152.95,604.82,152.95z"/>
		<path class="st1" d="M615.98,142.95v-1.16c-0.91,0.63-1.7,0.95-2.37,0.95c-0.67,0-1.23-0.3-1.68-0.89
			c-0.46-0.6-0.69-1.33-0.69-2.21c0-0.88,0.42-1.54,1.26-2c0.84-0.46,2.17-1.11,4-1.95c1.19-9.33,3.65-18.21,7.37-26.63
			c1.89-4.28,4.25-7.81,7.05-10.58c2.8-2.77,5.54-4.16,8.21-4.16c2.67,0,4.58,0.67,5.74,2c1.16,1.33,1.74,2.95,1.74,4.84v0.74
			c-0.42,5.19-2.37,10.35-5.84,15.48c-3.47,5.12-7.56,9.62-12.26,13.48c5.82-1.96,9.54-2.95,11.16-2.95c0.56,0,1.11,0.3,1.63,0.9
			c0.53,0.6,0.79,1.39,0.79,2.37c0,0.98-0.6,1.58-1.79,1.79c-3.58,0.56-9.05,2.35-16.42,5.37c-0.14,2.25-0.21,4-0.21,5.26
			c0,6.67,1.44,10,4.32,10c3.37,0,7.26-2.46,11.69-7.37c0.49-0.49,1.11-0.74,1.84-0.74c0.74,0,1.44,0.3,2.11,0.89
			c0.67,0.6,1,1.33,1,2.21c0,0.88-0.42,1.77-1.26,2.68c-5.41,6.04-10.84,9.05-16.32,9.05c-4.07,0-6.93-1.53-8.58-4.58
			S615.98,148.42,615.98,142.95z M638.51,103.05c-1.96,0-3.93,1.47-5.89,4.42c-3.65,5.41-6.14,12.28-7.47,20.63
			c0.14-0.14,1-1.09,2.58-2.84c1.58-1.75,2.56-2.84,2.95-3.26c0.38-0.42,1.23-1.42,2.53-3s2.16-2.79,2.58-3.63
			c0.42-0.84,1-1.96,1.74-3.37c0.74-1.4,1.23-2.74,1.47-4c0.24-1.26,0.37-2.39,0.37-3.37C639.35,103.65,639.07,103.12,638.51,103.05
			z"/>
	</g>
</g>
</svg>
